HIERARCHY
ROOT joint_0
{
	OFFSET 0.000000 0.000000 0.000000
	CHANNELS 6 Xposition Yposition Zposition Zrotation Yrotation Xrotation 
	JOINT joint_1
	{
		OFFSET 3.886261 -0.864090 119.041016
		CHANNELS 3 Zrotation Yrotation Xrotation
		JOINT joint_2
		{
			OFFSET -8.814819 -1.400200 108.366943
			CHANNELS 3 Zrotation Yrotation Xrotation
			JOINT joint_3
			{
				OFFSET -10.127777 -1.846550 108.123047
				CHANNELS 3 Zrotation Yrotation Xrotation
				JOINT joint_4
				{
					OFFSET -0.104309 -2.852760 150.227051
					CHANNELS 3 Zrotation Yrotation Xrotation
					JOINT joint_5
					{
						OFFSET 20.206146 2.292160 92.163940
						CHANNELS 3 Zrotation Yrotation Xrotation
						End Site
						{
							OFFSET 0.000000 0.000000 0.000000
						}
					}
				}
				JOINT joint_6
				{
					OFFSET 0.345886 -34.260384 83.589966
					CHANNELS 3 Zrotation Yrotation Xrotation
					JOINT joint_7
					{
						OFFSET -3.824402 -146.174217 -19.015991
						CHANNELS 3 Zrotation Yrotation Xrotation
						JOINT joint_8
						{
							OFFSET 134.098145 -24.802032 -261.230957
							CHANNELS 3 Zrotation Yrotation Xrotation
							JOINT joint_9
							{
								OFFSET 123.899048 209.340523 59.187012
								CHANNELS 3 Zrotation Yrotation Xrotation
								End Site
								{
									OFFSET 0.000000 0.000000 0.000000
								}
							}
						}
					}
				}
				JOINT joint_10
				{
					OFFSET -0.423798 31.098438 84.831055
					CHANNELS 3 Zrotation Yrotation Xrotation
					JOINT joint_11
					{
						OFFSET 3.093201 146.891491 -12.504028
						CHANNELS 3 Zrotation Yrotation Xrotation
						JOINT joint_12
						{
							OFFSET 195.631927 -20.967743 -219.380981
							CHANNELS 3 Zrotation Yrotation Xrotation
							JOINT joint_13
							{
								OFFSET -8.651001 -247.511261 -36.616089
								CHANNELS 3 Zrotation Yrotation Xrotation
								End Site
								{
									OFFSET 0.000000 0.000000 0.000000
								}
							}
						}
					}
				}
			}
		}
	}
	JOINT joint_14
	{
		OFFSET 6.948090 -87.642914 -106.942017
		CHANNELS 3 Zrotation Yrotation Xrotation
		JOINT joint_15
		{
			OFFSET -34.394226 4.543823 -458.972961
			CHANNELS 3 Zrotation Yrotation Xrotation
			JOINT joint_16
			{
				OFFSET -17.051544 6.964645 -485.636009
				CHANNELS 3 Zrotation Yrotation Xrotation
				JOINT joint_17
				{
					OFFSET 190.520630 40.462875 -83.888000
					CHANNELS 3 Zrotation Yrotation Xrotation
					End Site
					{
						OFFSET 0.000000 0.000000 0.000000
					}
				}
			}
		}
	}
	JOINT joint_18
	{
		OFFSET 3.929901 87.535423 -107.188965
		CHANNELS 3 Zrotation Yrotation Xrotation
		JOINT joint_19
		{
			OFFSET -34.463440 -10.383845 -458.873047
			CHANNELS 3 Zrotation Yrotation Xrotation
			JOINT joint_20
			{
				OFFSET 14.641205 -11.071349 -485.637978
				CHANNELS 3 Zrotation Yrotation Xrotation
				JOINT joint_21
				{
					OFFSET 194.569275 -4.161928 -84.249998
					CHANNELS 3 Zrotation Yrotation Xrotation
					End Site
					{
						OFFSET 0.000000 0.000000 0.000000
					}
				}
			}
		}
	}
}
MOTION
Frames: 13
Frame Time: 0.016667
802.520813 -54.103970 1156.218994 -0.959061 -2.663059 0.895031 0.433856 4.002371 3.567635 0.050431 -0.598518 -0.772666 0.200428 0.795275 0.536075 0.570108 -1.866051 -2.376626 0.000000 0.000000 0.000000 2.628481 9.621006 -3.726048 11.892765 10.954785 -2.961002 -47.905437 11.792665 -88.144661 0.000000 0.000000 0.000000 1.969786 15.726350 -6.042525 1.679593 15.142094 16.683213 36.583545 -32.201210 51.014388 0.000000 0.000000 0.000000 -0.700758 2.511201 -0.326645 -0.701648 2.130618 -0.231355 -0.770555 -1.690502 0.020268 0.000000 0.000000 0.000000 -1.951074 1.570133 2.557432 -1.823411 3.621964 0.256256 -1.736545 -2.586213 -0.805681 0.000000 0.000000 0.000000 
802.478577 -53.925793 1156.218994 -0.956459 -2.666103 0.894005 0.435180 3.999052 3.561352 0.052289 -0.599055 -0.770845 0.201993 0.795682 0.534905 0.572933 -1.865322 -2.389864 0.000000 0.000000 0.000000 2.619297 9.646791 -3.713761 11.901478 10.965685 -2.966248 -47.885396 11.799974 -88.141719 0.000000 0.000000 0.000000 1.952852 15.723416 -6.051867 1.680486 15.143285 16.690101 36.581921 -32.201628 51.018498 0.000000 0.000000 0.000000 -0.700803 2.508230 -0.333861 -0.701835 2.137158 -0.236182 -0.771091 -1.693952 0.020765 0.000000 0.000000 0.000000 -1.950243 1.573713 2.548417 -1.823058 3.614454 0.256943 -1.736497 -2.575860 -0.805450 0.000000 0.000000 0.000000 
802.434570 -53.745426 1156.218018 -0.953127 -2.668989 0.892881 0.435735 3.994756 3.556764 0.053099 -0.598808 -0.770736 0.202750 0.796093 0.534731 0.575774 -1.861646 -2.403453 0.000000 0.000000 0.000000 2.612443 9.673431 -3.701393 11.915170 10.977608 -2.972533 -47.865993 11.806851 -88.148192 0.000000 0.000000 0.000000 1.940546 15.720888 -6.063144 1.683445 15.144936 16.698955 36.579398 -32.203080 51.021447 0.000000 0.000000 0.000000 -0.701071 2.505200 -0.341071 -0.702238 2.143436 -0.241144 -0.771837 -1.697338 0.021156 0.000000 0.000000 0.000000 -1.949637 1.577448 2.539436 -1.822899 3.605914 0.257571 -1.736666 -2.564999 -0.805303 0.000000 0.000000 0.000000 
802.390991 -53.561077 1156.214966 -0.949583 -2.673035 0.891549 0.435084 3.990840 3.552423 0.052812 -0.599109 -0.768724 0.202127 0.795819 0.533508 0.578520 -1.851493 -2.417262 0.000000 0.000000 0.000000 2.609893 9.700234 -3.688588 11.939856 10.990846 -2.978064 -47.850459 11.810634 -88.177013 0.000000 0.000000 0.000000 1.931760 15.719926 -6.076248 1.691864 15.148684 16.709987 36.577239 -32.205103 51.021075 0.000000 0.000000 0.000000 -0.701106 2.503826 -0.348617 -0.702493 2.148964 -0.245561 -0.772391 -1.700166 0.021512 0.000000 0.000000 0.000000 -1.949081 1.582576 2.530541 -1.822716 3.597349 0.257709 -1.736786 -2.554447 -0.805141 0.000000 0.000000 0.000000 
802.348816 -53.372852 1156.211060 -0.945990 -2.677210 0.889936 0.433603 3.984463 3.550602 0.051328 -0.597690 -0.768932 0.200586 0.796148 0.533296 0.581064 -1.838009 -2.430454 0.000000 0.000000 0.000000 2.611694 9.727377 -3.675124 11.973257 11.005280 -2.984237 -47.837312 11.812763 -88.223297 0.000000 0.000000 0.000000 1.927761 15.719365 -6.091744 1.703532 15.153198 16.723773 36.573877 -32.207550 51.019049 0.000000 0.000000 0.000000 -0.701165 2.503029 -0.356294 -0.702824 2.153820 -0.249552 -0.772987 -1.702697 0.021787 0.000000 0.000000 0.000000 -1.948524 1.588367 2.521889 -1.822459 3.587898 0.257529 -1.736833 -2.543892 -0.804947 0.000000 0.000000 0.000000 
802.302612 -53.184223 1156.207031 -0.941727 -2.682048 0.888547 0.431574 3.979542 3.547752 0.049472 -0.597433 -0.767746 0.198561 0.795667 0.533230 0.583604 -1.818730 -2.444242 0.000000 0.000000 0.000000 2.612744 9.754869 -3.662352 12.002968 11.020352 -2.990850 -47.824449 11.814672 -88.264120 0.000000 0.000000 0.000000 1.925465 15.719858 -6.108731 1.716466 15.158825 16.738851 36.569924 -32.210757 51.016630 0.000000 0.000000 0.000000 -0.701382 2.502179 -0.364697 -0.703421 2.159493 -0.252681 -0.773802 -1.704014 0.021707 0.000000 0.000000 0.000000 -1.948282 1.594410 2.513163 -1.822488 3.578685 0.256907 -1.737162 -2.532905 -0.804867 0.000000 0.000000 0.000000 
802.251465 -52.995087 1156.203003 -0.937438 -2.687385 0.887141 0.429542 3.975000 3.545282 0.047524 -0.598005 -0.767102 0.196466 0.796194 0.532420 0.585481 -1.794936 -2.455492 0.000000 0.000000 0.000000 2.612170 9.782214 -3.650744 12.016982 11.035962 -2.996578 -47.812661 11.817116 -88.280722 0.000000 0.000000 0.000000 1.926549 15.721062 -6.125107 1.726853 15.164146 16.754482 36.564392 -32.214815 51.016084 0.000000 0.000000 0.000000 -0.701754 2.500034 -0.373997 -0.704329 2.167508 -0.254248 -0.774852 -1.702622 0.020950 0.000000 0.000000 0.000000 -1.947964 1.600345 2.504411 -1.822456 3.570142 0.256306 -1.737416 -2.522228 -0.804759 0.000000 0.000000 0.000000 
802.195251 -52.806442 1156.201050 -0.932562 -2.692801 0.886077 0.426915 3.970100 3.541632 0.045137 -0.598683 -0.765928 0.193919 0.796102 0.532110 0.586967 -1.764386 -2.465669 0.000000 0.000000 0.000000 2.611943 9.810150 -3.639710 12.020593 11.053187 -3.002381 -47.801911 11.819577 -88.282696 0.000000 0.000000 0.000000 1.930192 15.723121 -6.143736 1.737696 15.170376 16.772566 36.557558 -32.220068 51.016566 0.000000 0.000000 0.000000 -0.702432 2.496714 -0.384088 -0.705644 2.176963 -0.254915 -0.776244 -1.698773 0.019519 0.000000 0.000000 0.000000 -1.947926 1.605436 2.495689 -1.822690 3.562683 0.254931 -1.737911 -2.511144 -0.804746 0.000000 0.000000 0.000000 
802.138428 -52.613712 1156.197998 -0.929622 -2.699112 0.884825 0.423956 3.966148 3.539918 0.042158 -0.598998 -0.765665 0.190926 0.797185 0.532294 0.588471 -1.733662 -2.475889 0.000000 0.000000 0.000000 2.611578 9.835090 -3.628954 12.019674 11.067922 -3.009248 -47.792658 11.820924 -88.277673 0.000000 0.000000 0.000000 1.936313 15.725158 -6.162440 1.748332 15.176314 16.788994 36.550968 -32.224665 51.015894 0.000000 0.000000 0.000000 -0.702394 2.492878 -0.395064 -0.706395 2.188969 -0.254102 -0.777094 -1.695884 0.018531 0.000000 0.000000 0.000000 -1.947152 1.611609 2.486628 -1.822232 3.555343 0.254102 -1.737723 -2.500048 -0.804438 0.000000 0.000000 0.000000 
802.080627 -52.410835 1156.192993 -0.931342 -2.707061 0.883165 0.419733 3.967034 3.542767 0.037294 -0.599934 -0.767181 0.186343 0.798556 0.533639 0.590319 -1.702055 -2.487586 0.000000 0.000000 0.000000 2.615594 9.854849 -3.619281 12.014117 11.078788 -3.018027 -47.785972 11.820278 -88.266503 0.000000 0.000000 0.000000 1.949158 15.727811 -6.181605 1.760493 15.182475 16.800958 36.546508 -32.228871 51.010606 0.000000 0.000000 0.000000 -0.700730 2.488408 -0.407462 -0.705754 2.205283 -0.250963 -0.776639 -1.696142 0.018786 0.000000 0.000000 0.000000 -1.944745 1.619902 2.477165 -1.820172 3.548419 0.253668 -1.735911 -2.489618 -0.803442 0.000000 0.000000 0.000000 
802.019531 -52.200592 1156.187012 -0.935944 -2.717103 0.881100 0.415082 3.973616 3.548964 0.031493 -0.603275 -0.770241 0.181217 0.801881 0.536722 0.592086 -1.669249 -2.498938 0.000000 0.000000 0.000000 2.620127 9.870532 -3.610015 12.003515 11.086285 -3.029710 -47.781216 11.818124 -88.247940 0.000000 0.000000 0.000000 1.963837 15.730363 -6.202250 1.774548 15.188742 16.810294 36.543503 -32.232520 51.002037 0.000000 0.000000 0.000000 -0.698119 2.484024 -0.420930 -0.704356 2.225313 -0.245860 -0.775486 -1.698715 0.019839 0.000000 0.000000 0.000000 -1.941205 1.630347 2.467434 -1.817003 3.542134 0.253667 -1.732986 -2.479275 -0.801966 0.000000 0.000000 0.000000 
801.968933 -51.996433 1156.181030 -0.941479 -2.725811 0.879417 0.410650 3.973858 3.552450 0.026292 -0.606013 -0.772196 0.176403 0.804502 0.538111 0.593190 -1.633236 -2.507671 0.000000 0.000000 0.000000 2.623457 9.884372 -3.598062 11.996432 11.092276 -3.039974 -47.775256 11.816188 -88.234401 0.000000 0.000000 0.000000 1.975713 15.734298 -6.219435 1.785418 15.196145 16.817978 36.542019 -32.235762 50.996328 0.000000 0.000000 0.000000 -0.695441 2.478532 -0.434202 -0.702824 2.245746 -0.241338 -0.774245 -1.701914 0.021064 0.000000 0.000000 0.000000 -1.937383 1.639947 2.457553 -1.813594 3.536017 0.253877 -1.729813 -2.469386 -0.800391 0.000000 0.000000 0.000000 
801.937561 -51.810310 1156.177002 -0.942964 -2.730627 0.878379 0.405958 3.958089 3.547693 0.021983 -0.604057 -0.771410 0.171940 0.802243 0.538448 0.593134 -1.592432 -2.511841 0.000000 0.000000 0.000000 2.621869 9.898457 -3.582395 12.002574 11.097445 -3.046918 -47.762755 11.816985 -88.237276 0.000000 0.000000 0.000000 1.977661 15.741248 -6.231903 1.788675 15.206703 16.825130 36.541967 -32.238054 50.999691 0.000000 0.000000 0.000000 -0.694409 2.471567 -0.445409 -0.702541 2.263247 -0.240282 -0.774279 -1.704023 0.021497 0.000000 0.000000 0.000000 -1.935124 1.644875 2.448480 -1.811759 3.531796 0.253277 -1.728164 -2.460297 -0.799492 0.000000 0.000000 0.000000 
